<svg width="43" height="30" viewBox="0 0 43 30" fill="none" xmlns="http://www.w3.org/2000/svg">
<rect x="0.5" width="42.5" height="30" rx="5" fill="white"/>
<path fill-rule="evenodd" clip-rule="evenodd" d="M8.11946 10.625L4.14307 19.6834H8.90336L9.4935 18.2391H10.8424L11.4326 19.6834H16.6723V18.5811L17.1392 19.6834H19.8496L20.3165 18.5578V19.6834H31.2138L32.5388 18.2766L33.7795 19.6834L39.3766 19.6951L35.3876 15.1795L39.3766 10.625H33.8663L32.5765 12.0058L31.3748 10.625H19.52L18.5021 12.9631L17.4602 10.625H12.7099V11.6898L12.1814 10.625H8.11946ZM9.04054 11.9113H11.3609L13.9985 18.0539V11.9113H16.5404L18.5776 16.3155L20.4551 11.9113H22.9843V18.4113H21.4453L21.4327 13.318L19.1891 18.4113H17.8124L15.5562 13.318V18.4113H12.3902L11.79 16.9541H8.54729L7.94832 18.4101H6.25202L9.04054 11.9113ZM30.65 11.9113H24.3922V18.4075H30.5531L32.5388 16.2546L34.4527 18.4075H36.4535L33.5454 15.1782L36.4535 11.9113H34.5395L32.5639 14.0395L30.65 11.9113ZM10.1693 13.0112L9.10099 15.6071H11.2364L10.1693 13.0112ZM25.9376 14.4436V13.2571V13.2559H29.8422L31.546 15.1536L29.7667 17.0616H25.9376V15.7662H29.3514V14.4436H25.9376Z" fill="#1358B9"/>
</svg>
