<svg width="43" height="30" viewBox="0 0 43 30" fill="none" xmlns="http://www.w3.org/2000/svg">
<rect x="0.625" y="0.625" width="41.25" height="28.75" rx="4.375" fill="white" stroke="#D9D9D9" stroke-width="1.25"/>
<path fill-rule="evenodd" clip-rule="evenodd" d="M24.1773 14.3599H25.5688C26.01 14.3436 26.2783 14.3086 26.3749 14.2538C26.5068 14.179 26.5953 14.0293 26.6394 13.8047C26.6676 13.6552 26.6816 13.433 26.6816 13.1377C26.6816 12.776 26.6537 12.5079 26.5974 12.3328C26.5171 12.0875 26.3249 11.9382 26.0203 11.8839C25.9601 11.8757 25.816 11.8713 25.5876 11.8713H24.1773V14.3599ZM21.9452 18.5518V10H26.1036C26.674 10 27.1093 10.048 27.4083 10.144C28.0923 10.365 28.5512 10.8174 28.7862 11.5012C28.9075 11.8601 28.9682 12.4004 28.9682 13.1219C28.9682 13.9893 28.9009 14.6127 28.7678 14.9923C28.501 15.7428 27.952 16.1751 27.123 16.2871C27.0255 16.3039 26.6106 16.319 25.8785 16.331L25.5079 16.3438H24.1772V18.5518H21.9452ZM10.7376 12.7279H12.814C12.8274 12.539 12.8341 12.3977 12.8341 12.3031C12.8341 11.1508 12.3824 10.4496 11.4788 10.1992C11.1085 10.0968 10.4874 10.0452 9.61592 10.0452C9.06235 10.0452 8.55908 10.066 8.10542 10.1068C7.5602 10.152 7.11227 10.3034 6.76224 10.5612C6.52328 10.7292 6.35013 10.9747 6.24268 11.2982C6.13532 11.6216 6.08159 12.0516 6.08159 12.5877C6.08159 13.2918 6.181 13.8181 6.37971 14.1659C6.60579 14.5753 7.05885 14.845 7.73869 14.9761C7.99686 15.0217 8.45787 15.0687 9.12151 15.1175C9.94794 15.1749 10.411 15.2201 10.5105 15.2526C10.7766 15.3348 10.9099 15.5638 10.9099 15.9403C10.9099 16.1084 10.8941 16.2458 10.8623 16.3519C10.8024 16.5243 10.6772 16.6489 10.4863 16.7263C10.3791 16.7676 10.1305 16.7882 9.74088 16.7882H8.97753C8.77429 16.7836 8.60144 16.7451 8.45827 16.6718C8.25171 16.5654 8.14818 16.3266 8.14818 15.9553L8.14798 15.7775H6.07153C6.07153 16.4733 6.12093 16.9704 6.22074 17.2688C6.39993 17.805 6.77019 18.1611 7.33181 18.3368C7.7894 18.4803 8.59983 18.5517 9.76271 18.5517C10.4594 18.5517 10.9773 18.5188 11.3159 18.453C12.124 18.2975 12.6434 17.9272 12.8746 17.3409C13.0021 17.0214 13.0658 16.5172 13.0658 15.8287C13.0658 15.53 13.0519 15.2612 13.024 15.0236C12.9762 14.6265 12.8264 14.3049 12.5751 14.0588C12.2559 13.7434 11.7414 13.5487 11.0316 13.475C10.8081 13.4504 10.2476 13.4071 9.3501 13.3457L8.93135 13.3152C8.74753 13.303 8.60013 13.262 8.48855 13.1923C8.33281 13.094 8.25513 12.889 8.25513 12.5777C8.25513 12.2337 8.34287 12.0104 8.51813 11.9077C8.6935 11.8053 9.05289 11.7541 9.59499 11.7541C10.1532 11.7541 10.4943 11.843 10.6178 12.0206C10.6975 12.1407 10.7376 12.3765 10.7376 12.7279ZM6.07939 20.2478L6.39069 20.2155C6.4094 20.3237 6.44743 20.403 6.50468 20.4539C6.56203 20.5046 6.6393 20.5299 6.73659 20.5299C6.83962 20.5299 6.91719 20.5074 6.96951 20.4624C7.02173 20.4173 7.04779 20.3645 7.04779 20.3042C7.04779 20.2655 7.03682 20.2326 7.01499 20.2053C6.99306 20.1781 6.95482 20.1546 6.90019 20.1343C6.86276 20.1212 6.77764 20.0975 6.64473 20.0635C6.47359 20.0199 6.35366 19.9662 6.28464 19.9023C6.18765 19.8127 6.13916 19.7034 6.13916 19.5743C6.13916 19.4914 6.16199 19.4137 6.20777 19.3415C6.25345 19.2692 6.31945 19.2141 6.40548 19.1763C6.4916 19.1386 6.59554 19.1196 6.71728 19.1196C6.91609 19.1196 7.0657 19.1647 7.16621 19.2548C7.26672 19.3449 7.31944 19.4652 7.32448 19.6156L7.00382 19.6286C6.99014 19.5445 6.96076 19.4841 6.91569 19.4472C6.87071 19.4104 6.8032 19.3919 6.71315 19.3919C6.62019 19.3919 6.54754 19.4116 6.49492 19.451C6.46102 19.4763 6.44411 19.5101 6.44411 19.5524C6.44411 19.5911 6.46001 19.6241 6.4917 19.6517C6.53195 19.6866 6.62984 19.723 6.78539 19.7606C6.94084 19.7984 7.05584 19.8375 7.13039 19.8782C7.20485 19.9187 7.2632 19.9742 7.30536 20.0446C7.34741 20.1151 7.36854 20.2021 7.36854 20.3056C7.36854 20.3996 7.34329 20.4875 7.29278 20.5694C7.24227 20.6514 7.17094 20.7123 7.07868 20.7522C6.98642 20.792 6.87142 20.812 6.73368 20.812C6.53326 20.812 6.37932 20.764 6.27186 20.6679C6.16451 20.5718 6.10032 20.4319 6.07939 20.2478ZM7.701 19.5994H8.00595V20.7828H7.701V19.5994ZM7.70098 19.1486H8.00594V19.4372H7.70098V19.1486ZM9.12435 20.7825H9.4293V20.0456C9.4293 19.9541 9.42367 19.8837 9.4125 19.8347C9.40133 19.7855 9.38151 19.7416 9.35304 19.7029C9.32456 19.6642 9.28261 19.6324 9.22717 19.6075C9.17173 19.5826 9.11046 19.57 9.04345 19.57C8.89153 19.57 8.76536 19.6377 8.66525 19.773V19.5992H8.38232V20.7825H8.68728V20.2454C8.68728 20.1128 8.69493 20.022 8.71042 19.973C8.72582 19.9238 8.75429 19.8844 8.79594 19.8546C8.8376 19.8248 8.88458 19.8099 8.937 19.8099C8.97785 19.8099 9.01287 19.8204 9.04194 19.8411C9.07102 19.862 9.09195 19.8913 9.10493 19.9289C9.11781 19.9664 9.12435 20.0492 9.12435 20.1772V20.7825ZM10.046 20.1653C10.046 20.2912 10.0694 20.3834 10.1163 20.4418C10.163 20.5005 10.2208 20.5296 10.2895 20.5296C10.3631 20.5296 10.4252 20.4996 10.4761 20.4397C10.5268 20.3797 10.5522 20.2908 10.5522 20.173C10.5522 20.0502 10.5279 19.9589 10.4793 19.8992C10.4306 19.8397 10.3692 19.8098 10.2949 19.8098C10.2226 19.8098 10.163 19.8392 10.1163 19.8976C10.0694 19.9562 10.046 20.0453 10.046 20.1653ZM9.77252 20.8603L10.1183 20.8992C10.1242 20.9433 10.1375 20.9736 10.1585 20.9902C10.1874 21.0139 10.233 21.0257 10.2952 21.0257C10.3748 21.0257 10.4344 21.0135 10.4743 20.989C10.501 20.9726 10.5213 20.9462 10.5351 20.9098C10.5444 20.8837 10.5491 20.8358 10.5491 20.7659L10.5501 20.5932C10.4601 20.7194 10.346 20.7825 10.2076 20.7825C10.0531 20.7825 9.93098 20.7153 9.84083 20.5805C9.7701 20.4741 9.73479 20.3415 9.73479 20.183C9.73479 19.9842 9.78107 19.8324 9.87373 19.7274C9.9664 19.6225 10.0817 19.57 10.2194 19.57C10.3615 19.57 10.4787 19.6344 10.5711 19.7631V19.5992H10.8541V20.6629C10.8541 20.8028 10.8429 20.9074 10.8205 20.9765C10.7982 21.0458 10.7668 21.1001 10.7263 21.1395C10.6859 21.1789 10.6319 21.2099 10.5644 21.2322C10.4969 21.2545 10.4116 21.2657 10.3085 21.2657C10.1136 21.2657 9.97535 21.231 9.89375 21.1618C9.81216 21.0926 9.77141 21.0048 9.77141 20.8985C9.77141 20.888 9.77181 20.8754 9.77252 20.8603ZM11.5242 19.1486H11.2193V20.7826H11.5242V19.1486ZM12.5861 20.0919C12.584 19.9998 12.5611 19.9299 12.5175 19.8818C12.4741 19.8339 12.4212 19.8098 12.3588 19.8098C12.2921 19.8098 12.2369 19.8352 12.1935 19.8858C12.1499 19.9363 12.1286 20.0051 12.1293 20.0919H12.5861ZM12.5704 20.4097L12.8722 20.4616C12.8332 20.5756 12.7715 20.6626 12.6873 20.7222C12.6031 20.782 12.4976 20.8118 12.3712 20.8118C12.1708 20.8118 12.0226 20.7442 11.9265 20.6093C11.8506 20.5011 11.8127 20.3647 11.8127 20.1998C11.8127 20.0031 11.8625 19.8488 11.9623 19.7372C12.062 19.6257 12.188 19.57 12.3405 19.57C12.5118 19.57 12.6469 19.6285 12.7459 19.7454C12.8449 19.8626 12.8922 20.0417 12.8879 20.2833H12.1239C12.1261 20.3764 12.1508 20.4489 12.1981 20.5007C12.2454 20.5524 12.3043 20.5783 12.375 20.5783C12.423 20.5783 12.4634 20.5651 12.4961 20.5384C12.5288 20.5118 12.5537 20.4689 12.5704 20.4097ZM13.8857 19.1486V20.7826H15.0899V20.507H14.2064V20.0629H14.9988V19.7873H14.2064V19.4242H15.0585V19.1486H13.8857ZM16.18 20.7827V20.6055C16.138 20.6686 16.083 20.7189 16.0147 20.7561C15.9464 20.7932 15.8743 20.8119 15.7985 20.8119C15.7211 20.8119 15.6519 20.7944 15.5904 20.7594C15.529 20.7245 15.4846 20.6753 15.4571 20.6121C15.4296 20.5488 15.4159 20.4613 15.4159 20.3497V19.5993H15.7209V20.1436C15.7209 20.3102 15.7264 20.4123 15.7377 20.4497C15.7489 20.4875 15.7692 20.5172 15.7988 20.5392C15.8284 20.5611 15.8658 20.5719 15.9113 20.5719C15.9632 20.5719 16.0098 20.5574 16.0508 20.528C16.092 20.4986 16.12 20.4622 16.1352 20.4186C16.1503 20.3751 16.158 20.2686 16.158 20.0991V19.5993H16.4629V20.7827H16.18ZM16.8281 20.7825H17.1331V20.4166C17.1331 20.2151 17.1416 20.0826 17.1587 20.0194C17.1757 19.9563 17.199 19.9126 17.2287 19.8883C17.2584 19.8642 17.2945 19.8521 17.3372 19.8521C17.3813 19.8521 17.4292 19.8692 17.4805 19.9033L17.5733 19.6294C17.5091 19.5898 17.4423 19.57 17.3731 19.57C17.324 19.57 17.2802 19.5831 17.2416 19.6091C17.2029 19.6353 17.1595 19.688 17.1111 19.7674V19.5992H16.8281V20.7825ZM18.0076 20.1907C18.0076 20.3086 18.0346 20.3988 18.0889 20.4614C18.1431 20.5241 18.2099 20.5554 18.2895 20.5554C18.369 20.5554 18.4357 20.5241 18.4895 20.4614C18.5433 20.3988 18.5703 20.3078 18.5703 20.1885C18.5703 20.0722 18.5433 19.9825 18.4895 19.92C18.4357 19.8573 18.369 19.826 18.2895 19.826C18.2099 19.826 18.1431 19.8573 18.0889 19.92C18.0346 19.9825 18.0076 20.0729 18.0076 20.1907ZM17.6963 20.174C17.6963 20.0697 17.7211 19.9686 17.7709 19.8709C17.8206 19.7732 17.8911 19.6987 17.9823 19.6472C18.0735 19.5957 18.1754 19.57 18.2879 19.57C18.4617 19.57 18.604 19.6283 18.7151 19.745C18.8261 19.8617 18.8816 20.0093 18.8816 20.1875C18.8816 20.3672 18.8255 20.5163 18.7134 20.6345C18.6013 20.7526 18.4601 20.8118 18.29 20.8118C18.1848 20.8118 18.0844 20.7871 17.9889 20.738C17.8933 20.6887 17.8206 20.6166 17.7709 20.5215C17.7211 20.4263 17.6963 20.3107 17.6963 20.174ZM20.1953 19.8911V19.4243H20.3494C20.4645 19.4243 20.541 19.428 20.5791 19.4355C20.6308 19.4452 20.6736 19.4695 20.7074 19.5084C20.7412 19.5473 20.7581 19.5967 20.7581 19.6565C20.7581 19.7052 20.746 19.7478 20.722 19.7845C20.6979 19.8212 20.6646 19.8482 20.6223 19.8654C20.5798 19.8826 20.4957 19.8911 20.3699 19.8911H20.1953ZM19.8746 19.1486V20.7826H20.1953V20.1666H20.4038C20.5483 20.1666 20.6588 20.1589 20.7352 20.1432C20.7913 20.1305 20.8466 20.1048 20.9009 20.0657C20.9552 20.0267 21.0001 19.9729 21.0353 19.9047C21.0706 19.8361 21.0882 19.7519 21.0882 19.6515C21.0882 19.5214 21.0576 19.4153 20.9964 19.3332C20.9351 19.2511 20.8591 19.1976 20.7684 19.1731C20.7093 19.1569 20.5824 19.1486 20.388 19.1486H19.8746ZM22.0464 20.2151C22.0074 20.2286 21.946 20.2446 21.8618 20.2632C21.7777 20.2818 21.7227 20.3002 21.6969 20.318C21.6573 20.3472 21.6377 20.3841 21.6377 20.4288C21.6377 20.4729 21.6534 20.5109 21.685 20.543C21.7167 20.5751 21.7569 20.5912 21.8059 20.5912C21.8605 20.5912 21.9125 20.5725 21.9622 20.5353C21.9989 20.5068 22.023 20.4722 22.0345 20.4311C22.0423 20.4042 22.0464 20.3531 22.0464 20.2776V20.2151ZM21.6377 19.9591L21.3641 19.9072C21.3951 19.7925 21.4485 19.7078 21.5241 19.6527C21.5999 19.5976 21.7124 19.57 21.8616 19.57C21.9971 19.57 22.0981 19.5866 22.1644 19.6196C22.2307 19.6529 22.2775 19.6949 22.3045 19.7459C22.3315 19.7968 22.3451 19.8905 22.3451 20.0267L22.342 20.3929C22.342 20.4971 22.3468 20.5741 22.3565 20.6235C22.3663 20.673 22.3845 20.726 22.4111 20.7825H22.1093C22.1012 20.7621 22.0916 20.7317 22.08 20.6914C22.075 20.6731 22.0714 20.661 22.0693 20.6551C22.0174 20.7073 21.962 20.7465 21.9029 20.7727C21.8439 20.7987 21.781 20.8118 21.714 20.8118C21.5959 20.8118 21.5027 20.7786 21.4347 20.7124C21.3667 20.6461 21.3326 20.5623 21.3326 20.461C21.3326 20.3941 21.3481 20.3343 21.379 20.2818C21.4101 20.2293 21.4536 20.1891 21.5094 20.1612C21.5654 20.1334 21.646 20.1088 21.7512 20.0879C21.8932 20.0604 21.9916 20.0348 22.0464 20.0109V19.9793C22.0464 19.9183 22.0319 19.8748 22.0029 19.8488C21.9739 19.8228 21.9192 19.8099 21.8387 19.8099C21.7844 19.8099 21.742 19.821 21.7116 19.843C21.6811 19.8651 21.6564 19.9038 21.6377 19.9591ZM22.8878 19.5993H22.5641L23.0016 20.786C22.9835 20.8528 22.9575 20.9079 22.9234 20.9512C22.8893 20.9944 22.8368 21.0161 22.7657 21.0161C22.7274 21.0161 22.6841 21.0113 22.6363 21.0015L22.6647 21.2468C22.7209 21.2595 22.7785 21.2658 22.8369 21.2658C22.8947 21.2658 22.9465 21.2595 22.9924 21.2467C23.0383 21.2342 23.0767 21.2163 23.1082 21.1936C23.1396 21.171 23.1674 21.1413 23.1916 21.1049C23.2157 21.0684 23.2412 21.0156 23.268 20.9463L23.7463 19.5993H23.4319L23.163 20.4395L22.8878 19.5993ZM23.984 19.5992H24.2638V19.7608C24.3643 19.6336 24.484 19.57 24.6228 19.57C24.6965 19.57 24.7604 19.5856 24.8147 19.6168C24.8689 19.6481 24.9134 19.6954 24.948 19.7586C24.9985 19.6954 25.0531 19.6481 25.1115 19.6168C25.17 19.5856 25.2323 19.57 25.2987 19.57C25.3832 19.57 25.4547 19.5876 25.5131 19.6231C25.5716 19.6583 25.6154 19.7103 25.6442 19.7789C25.6651 19.8294 25.6755 19.9112 25.6755 20.0244V20.7825H25.3706V20.1047C25.3706 19.9871 25.3601 19.9112 25.3393 19.877C25.3111 19.8322 25.2679 19.8099 25.2097 19.8099C25.1671 19.8099 25.1271 19.8233 25.0897 19.8501C25.0522 19.877 25.0253 19.9162 25.0088 19.968C24.9922 20.0197 24.9838 20.1014 24.9838 20.213V20.7825H24.6789V20.1327C24.6789 20.0172 24.6735 19.9429 24.6627 19.9093C24.6519 19.8758 24.6352 19.8509 24.6124 19.8345C24.5897 19.8182 24.559 19.8099 24.5201 19.8099C24.4733 19.8099 24.4311 19.8229 24.3937 19.849C24.3563 19.875 24.3295 19.9127 24.3132 19.9618C24.297 20.0109 24.289 20.0924 24.289 20.2063V20.7825H23.984V19.5992ZM26.6574 19.8818C26.7011 19.9299 26.7238 19.9998 26.726 20.0919H26.2693C26.2686 20.0051 26.2899 19.9363 26.3335 19.8858C26.3768 19.8352 26.4321 19.8098 26.4987 19.8098C26.561 19.8098 26.6141 19.8339 26.6574 19.8818ZM27.0122 20.4616L26.7104 20.4097C26.6937 20.4689 26.6689 20.5118 26.636 20.5384C26.6033 20.5651 26.563 20.5783 26.515 20.5783C26.4442 20.5783 26.3853 20.5524 26.3381 20.5007C26.2908 20.4489 26.2661 20.3764 26.2638 20.2833H27.0279C27.0322 20.0417 26.9848 19.8626 26.8858 19.7454C26.7868 19.6285 26.6518 19.57 26.4805 19.57C26.3279 19.57 26.202 19.6257 26.1022 19.7372C26.0026 19.8488 25.9526 20.0031 25.9526 20.1998C25.9526 20.3647 25.9905 20.5011 26.0664 20.6093C26.1626 20.7442 26.3108 20.8118 26.5111 20.8118C26.6376 20.8118 26.743 20.782 26.8273 20.7222C26.9115 20.6626 26.9731 20.5756 27.0122 20.4616ZM28.3851 20.7825H28.0801V20.1772C28.0801 20.0492 28.0736 19.9664 28.0608 19.9289C28.0478 19.8913 28.0268 19.862 27.9977 19.8411C27.9686 19.8204 27.9336 19.8099 27.8928 19.8099C27.8404 19.8099 27.7934 19.8248 27.7518 19.8546C27.7102 19.8844 27.6817 19.9238 27.6662 19.973C27.6508 20.022 27.643 20.1128 27.643 20.2454V20.7825H27.3381V19.5992H27.621V19.773C27.7212 19.6377 27.8473 19.57 27.9992 19.57C28.0662 19.57 28.1276 19.5826 28.1829 19.6075C28.2384 19.6324 28.2804 19.6642 28.3089 19.7029C28.3374 19.7416 28.3571 19.7855 28.3683 19.8347C28.3795 19.8837 28.3851 19.9541 28.3851 20.0456V20.7825ZM29.2849 19.8489V19.5993H29.0773V19.1779L28.7724 19.3626V19.5993H28.634V19.8489H28.7724V20.3662C28.7724 20.4771 28.7755 20.5509 28.782 20.5874C28.7899 20.6387 28.804 20.6795 28.8244 20.7096C28.8449 20.7398 28.877 20.7645 28.9207 20.7834C28.9644 20.8023 29.0134 20.8119 29.0681 20.8119C29.1569 20.8119 29.2365 20.7962 29.3068 20.765L29.2802 20.5224C29.2276 20.5425 29.1878 20.5525 29.16 20.5525C29.1402 20.5525 29.1235 20.5472 29.1096 20.5369C29.0958 20.5264 29.087 20.5132 29.0832 20.4971C29.0792 20.4811 29.0773 20.4246 29.0773 20.3277V19.8489H29.2849ZM29.4564 20.4486L29.7613 20.4C29.7743 20.4605 29.8005 20.5063 29.8401 20.5378C29.8797 20.5692 29.9351 20.5848 30.0063 20.5848C30.0849 20.5848 30.1439 20.5698 30.1835 20.5399C30.2101 20.5189 30.2235 20.491 30.2235 20.4557C30.2235 20.4318 30.2162 20.4119 30.2017 20.3964C30.1864 20.3813 30.1524 20.3675 30.0995 20.3548C29.8531 20.2986 29.6968 20.2475 29.631 20.2013C29.5397 20.1373 29.4941 20.0482 29.4941 19.9344C29.4941 19.8315 29.5334 19.745 29.6124 19.6751C29.6915 19.6051 29.8139 19.57 29.9798 19.57C30.1378 19.57 30.2551 19.5963 30.332 19.6486C30.4088 19.7011 30.4617 19.7786 30.4908 19.8813L30.2046 19.9363C30.1922 19.8904 30.1687 19.855 30.1341 19.8305C30.0994 19.8059 30.05 19.7937 29.9859 19.7937C29.905 19.7937 29.8469 19.8052 29.812 19.8285C29.7886 19.8449 29.777 19.8662 29.777 19.8924C29.777 19.9149 29.7871 19.934 29.8074 19.9497C29.8349 19.9706 29.9299 20.0001 30.0924 20.0383C30.2549 20.0765 30.3684 20.1232 30.4329 20.1785C30.4965 20.2345 30.5285 20.3126 30.5285 20.4128C30.5285 20.5218 30.4844 20.6156 30.3966 20.694C30.3085 20.7726 30.1786 20.8118 30.0063 20.8118C29.85 20.8118 29.7263 20.7791 29.6351 20.714C29.544 20.6488 29.4844 20.5605 29.4564 20.4486ZM32.163 19.5314L32.3846 20.1377H31.9489L32.163 19.5314ZM32.6274 20.7826H32.9727L32.3328 19.1486H31.9955L31.3817 20.7826H31.721L31.8516 20.413H32.4903L32.6274 20.7826ZM33.4961 20.7825H33.1911V19.5992H33.4741V19.7674C33.5224 19.688 33.5658 19.6353 33.6045 19.6091C33.6431 19.5831 33.6868 19.57 33.736 19.57C33.8053 19.57 33.872 19.5898 33.9363 19.6294L33.8435 19.9033C33.7921 19.8692 33.7443 19.8521 33.7002 19.8521C33.6574 19.8521 33.6212 19.8642 33.5916 19.8883C33.5619 19.9126 33.5385 19.9563 33.5216 20.0194C33.5045 20.0826 33.4961 20.2151 33.4961 20.4166V20.7825ZM34.7485 19.8818C34.792 19.9299 34.8148 19.9998 34.817 20.0919H34.3602C34.3594 20.0051 34.3808 19.9363 34.4244 19.8858C34.4679 19.8352 34.5229 19.8098 34.5897 19.8098C34.652 19.8098 34.7049 19.8339 34.7485 19.8818ZM35.1031 20.4616L34.8013 20.4097C34.7845 20.4689 34.7597 20.5118 34.727 20.5384C34.6942 20.5651 34.6539 20.5783 34.6058 20.5783C34.5352 20.5783 34.4763 20.5524 34.4289 20.5007C34.3817 20.4489 34.357 20.3764 34.3547 20.2833H35.1188C35.1231 20.0417 35.0757 19.8626 34.9768 19.7454C34.8777 19.6285 34.7426 19.57 34.5714 19.57C34.4189 19.57 34.2928 19.6257 34.1932 19.7372C34.0934 19.8488 34.0434 20.0031 34.0434 20.1998C34.0434 20.3647 34.0814 20.5011 34.1573 20.6093C34.2534 20.7442 34.4017 20.8118 34.602 20.8118C34.7285 20.8118 34.834 20.782 34.9182 20.7222C35.0024 20.6626 35.0641 20.5756 35.1031 20.4616ZM36.0641 20.2151C36.0253 20.2286 35.9637 20.2446 35.8796 20.2632C35.7955 20.2818 35.7405 20.3002 35.7147 20.318C35.675 20.3472 35.6554 20.3841 35.6554 20.4288C35.6554 20.4729 35.6711 20.5109 35.7028 20.543C35.7344 20.5751 35.7747 20.5912 35.8237 20.5912C35.8783 20.5912 35.9303 20.5725 35.98 20.5353C36.0166 20.5068 36.0408 20.4722 36.0522 20.4311C36.0601 20.4042 36.0641 20.3531 36.0641 20.2776V20.2151ZM35.6554 19.9591L35.3818 19.9072C35.4128 19.7925 35.4661 19.7078 35.5418 19.6527C35.6176 19.5976 35.7301 19.57 35.8793 19.57C36.0148 19.57 36.1158 19.5866 36.1821 19.6196C36.2484 19.6529 36.2952 19.6949 36.3222 19.7459C36.3492 19.7968 36.3628 19.8905 36.3628 20.0267L36.3597 20.3929C36.3597 20.4971 36.3645 20.5741 36.3742 20.6235C36.3839 20.673 36.4021 20.726 36.4287 20.7825H36.127C36.1189 20.7621 36.1094 20.7317 36.0977 20.6914C36.0928 20.6731 36.089 20.661 36.087 20.6551C36.0351 20.7073 35.9798 20.7465 35.9207 20.7727C35.8617 20.7987 35.7987 20.8118 35.7317 20.8118C35.6135 20.8118 35.5204 20.7786 35.4524 20.7124C35.3844 20.6461 35.3504 20.5623 35.3504 20.461C35.3504 20.3941 35.3658 20.3343 35.3968 20.2818C35.4278 20.2293 35.4713 20.1891 35.5271 20.1612C35.5831 20.1334 35.6636 20.1088 35.7689 20.0879C35.9109 20.0604 36.0093 20.0348 36.0641 20.0109V19.9793C36.0641 19.9183 36.0496 19.8748 36.0206 19.8488C35.9916 19.8228 35.9369 19.8099 35.8564 19.8099C35.8021 19.8099 35.7597 19.821 35.7292 19.843C35.6989 19.8651 35.6741 19.9038 35.6554 19.9591ZM32.2435 11.7007L33.2892 15.4078H31.2286L32.2435 11.7007ZM30.7483 17.0738H33.7326L34.1584 18.5518H36.4192L33.8968 10H30.5299L28.0381 18.5518H30.3474L30.7483 17.0738Z" fill="#10298E"/>
<path fill-rule="evenodd" clip-rule="evenodd" d="M18.8645 11.2029C19.7851 11.2029 20.6067 11.6402 21.1468 12.3252L21.6279 11.2615C20.8754 10.5281 19.8513 10.0759 18.7217 10.0759C16.963 10.0759 15.4585 11.1712 14.8411 12.7216H13.9029L13.3489 13.9463H14.5558C14.5468 14.0599 14.5409 14.1736 14.5409 14.2896C14.5409 14.4299 14.548 14.5686 14.5615 14.7057H13.9549L13.401 15.9307H14.8698C15.5049 17.4419 16.9906 18.5029 18.7217 18.5029C19.5941 18.5029 20.4036 18.2333 21.0739 17.7729V16.2716C20.5341 16.9053 19.7446 17.3057 18.8645 17.3057C17.8356 17.3057 16.9306 16.7587 16.4036 15.9307H19.4794L20.0333 14.7057H15.951C15.93 14.5583 15.9187 14.4076 15.9187 14.2542C15.9187 14.1504 15.924 14.0477 15.9336 13.9463H20.3766L20.9305 12.7216H16.3179C16.828 11.8138 17.7772 11.2029 18.8645 11.2029Z" fill="#FFBE00"/>
</svg>
