<svg width="43" height="30" viewBox="0 0 43 30" fill="none" xmlns="http://www.w3.org/2000/svg">
<rect x="1.125" y="0.625" width="41.25" height="28.75" rx="4.375" fill="white" stroke="#D9D9D9" stroke-width="1.25"/>
<path fill-rule="evenodd" clip-rule="evenodd" d="M20.5722 19.4098V15.7415H22.4655C23.2413 15.7415 23.8961 15.4815 24.4299 14.9688L24.5581 14.8388C25.5332 13.7773 25.4691 12.1237 24.4299 11.1416C23.9104 10.6217 23.1986 10.3401 22.4655 10.3545H19.4263V19.4098H20.5722ZM20.5723 14.6292V11.4664H22.4944C22.9073 11.4664 23.2988 11.6252 23.5907 11.9141C24.21 12.5206 24.2242 13.5316 23.6263 14.1598C23.3344 14.4703 22.9215 14.6436 22.4944 14.6292H20.5723ZM29.9034 13.6978C29.4123 13.2429 28.7432 13.0118 27.8962 13.0118C26.8073 13.0118 25.9887 13.4162 25.4478 14.2177L26.4585 14.8604C26.8286 14.3116 27.334 14.0372 27.9745 14.0372C28.3802 14.0372 28.7717 14.1888 29.0778 14.4632C29.3767 14.7232 29.5475 15.0987 29.5475 15.4958V15.763C29.1062 15.5175 28.5511 15.3875 27.8678 15.3875C27.0706 15.3875 26.43 15.5753 25.9531 15.958C25.4763 16.3407 25.2343 16.8462 25.2343 17.4889C25.22 18.0738 25.4691 18.6298 25.9104 19.0053C26.3588 19.4097 26.9282 19.6119 27.5973 19.6119C28.3874 19.6119 29.0137 19.258 29.4906 18.5504H29.5404V19.4097H30.6365V15.5897C30.6365 14.7882 30.3945 14.1527 29.9034 13.6978ZM26.7932 18.2688C26.5583 18.0955 26.4159 17.8139 26.4159 17.5106C26.4159 17.1712 26.5725 16.8896 26.8786 16.6657C27.1918 16.4418 27.5834 16.3263 28.0461 16.3263C28.6868 16.3191 29.1851 16.4635 29.541 16.7524C29.541 17.2434 29.3488 17.6694 28.9715 18.0305C28.6298 18.3771 28.1671 18.5721 27.683 18.5721C27.3627 18.5793 27.0495 18.471 26.7932 18.2688ZM33.0993 22.1322L36.9285 13.2141H35.6829L33.9107 17.6623H33.8893L32.0743 13.2141H30.8287L33.3413 19.0126L31.9177 22.1322H33.0993Z" fill="#3C4043"/>
<path d="M16.616 14.9473C16.616 14.5935 16.5876 14.2397 16.5306 13.8931H11.6978V15.8933H14.4665C14.3526 16.536 13.9825 17.1137 13.4416 17.4747V18.7745H15.0929C16.0608 17.8719 16.616 16.536 16.616 14.9473Z" fill="#4285F4"/>
<path d="M11.6977 20.0309C13.0785 20.0309 14.2458 19.5688 15.0928 18.7745L13.4415 17.4747C12.9789 17.7924 12.3881 17.9729 11.6977 17.9729C10.3596 17.9729 9.22791 17.0558 8.8222 15.8282H7.12109V17.1714C7.98944 18.9261 9.76173 20.0309 11.6977 20.0309Z" fill="#34A853"/>
<path d="M8.82259 15.8283C8.60903 15.1856 8.60903 14.4852 8.82259 13.8353V12.4994H7.12121C6.38798 13.9653 6.38798 15.6983 7.12121 17.1642L8.82259 15.8283Z" fill="#FBBC04"/>
<path d="M11.6977 11.6906C12.4308 11.6762 13.1355 11.9578 13.6622 12.4705L15.1284 10.983C14.196 10.102 12.9718 9.6182 11.6977 9.63264C9.76173 9.63264 7.98944 10.7447 7.12109 12.4994L8.8222 13.8425C9.22791 12.6077 10.3596 11.6906 11.6977 11.6906Z" fill="#EA4335"/>
</svg>
