<svg width="43" height="30" viewBox="0 0 43 30" fill="none" xmlns="http://www.w3.org/2000/svg">
<rect x="1.125" y="0.625" width="41.25" height="28.75" rx="4.375" fill="white" stroke="#D9D9D9" stroke-width="1.25"/>
<path d="M18 28.75L41.75 21.5625V25C41.75 27.0711 40.0711 28.75 38 28.75H18Z" fill="#FD6020"/>
<path fill-rule="evenodd" clip-rule="evenodd" d="M37.2421 11.3885C38.5487 11.3885 39.2674 11.993 39.2674 13.1347C39.3327 14.0077 38.7447 14.7465 37.9607 14.8808L39.7247 17.3657H38.3527L36.8501 14.948H36.7195V17.3657H35.6088V11.3885H37.2421ZM36.7195 14.142H37.0461C37.7647 14.142 38.0914 13.8062 38.0914 13.2017C38.0914 12.6645 37.7647 12.3287 37.0461 12.3287H36.7195V14.142ZM31.7543 17.3657H34.8902V16.3583H32.8649V14.7465H34.8249V13.7391H32.8649V12.3959H34.8902V11.3885H31.7543V17.3657ZM28.4877 15.4181L26.9851 11.3885H25.8092L28.2264 17.5H28.8144L31.2316 11.3885H30.0557L28.4877 15.4181ZM15.2256 14.4107C15.2256 16.0897 16.5322 17.5 18.1655 17.5C18.6881 17.5 19.1455 17.3657 19.6028 17.1642V15.821C19.2761 16.224 18.8188 16.4926 18.2962 16.4926C17.2509 16.4926 16.4016 15.6867 16.4016 14.6122V14.4779C16.3362 13.4033 17.1855 12.4631 18.2308 12.3959C18.7535 12.3959 19.2761 12.6646 19.6028 13.0675V11.7244C19.2108 11.4557 18.6881 11.3886 18.2308 11.3886C16.5322 11.2542 15.2256 12.6646 15.2256 14.4107ZM13.2003 13.672C12.547 13.4033 12.351 13.269 12.351 12.9332C12.4164 12.5303 12.743 12.1945 13.135 12.2616C13.4617 12.2616 13.7883 12.4631 14.0496 12.7317L14.6376 11.9258C14.1803 11.5229 13.5923 11.2542 13.0043 11.2542C12.0897 11.1871 11.3057 11.9258 11.2404 12.8661V12.9332C11.2404 13.7391 11.5671 14.2092 12.6124 14.545C12.8737 14.6122 13.135 14.7465 13.3963 14.8808C13.5923 15.0151 13.723 15.2166 13.723 15.4852C13.723 15.9554 13.331 16.3583 12.939 16.3583H12.8737C12.351 16.3583 11.8937 16.0225 11.6977 15.5524L10.9791 16.2911C11.3711 17.0299 12.155 17.4328 12.939 17.4328C13.9843 17.5 14.8336 16.6941 14.8989 15.6196V15.4181C14.8336 14.6122 14.507 14.2092 13.2003 13.672ZM9.41113 17.3657H10.5218V11.3885H9.41113V17.3657ZM4.25 11.3885H5.88327H6.20993C7.77787 11.4557 9.01916 12.7989 8.95382 14.4107C8.95382 15.2838 8.56184 16.0897 7.90853 16.6941C7.32055 17.1642 6.60191 17.4328 5.88327 17.3657H4.25V11.3885ZM5.68727 16.3582C6.20991 16.4254 6.79789 16.2239 7.18988 15.8881C7.58186 15.4852 7.77785 14.9479 7.77785 14.3435C7.77785 13.8062 7.58186 13.2689 7.18988 12.866C6.79789 12.5302 6.20991 12.3287 5.68727 12.3959H5.36061V16.3582H5.68727Z" fill="black"/>
<path fill-rule="evenodd" clip-rule="evenodd" d="M22.9344 11.25C21.3011 11.25 19.9292 12.5932 19.9292 14.3393C19.9292 16.0183 21.2358 17.4286 22.9344 17.4958C24.633 17.5629 25.9396 16.1526 26.005 14.4065C25.9396 12.6603 24.633 11.25 22.9344 11.25V11.25Z" fill="#FD6020"/>
</svg>
