<svg width="44" height="44" viewBox="0 0 44 44" fill="none" xmlns="http://www.w3.org/2000/svg">
<path d="M22 40.0584C21.3593 40.0684 20.7272 39.9104 20.1667 39.6001L19.6167 39.2884C15.3327 36.8646 11.7686 33.3474 9.28853 29.0958C6.80843 24.8442 5.50108 20.0105 5.5 15.0884V14.8317C5.49419 14.1825 5.66085 13.5434 5.98296 12.9797C6.30507 12.416 6.77107 11.948 7.33333 11.6234L20.1667 4.40005C20.7241 4.07824 21.3564 3.90881 22 3.90881C22.6436 3.90881 23.2759 4.07824 23.8333 4.40005L36.6667 11.6234C37.2289 11.948 37.6949 12.416 38.017 12.9797C38.3391 13.5434 38.5058 14.1825 38.5 14.8317V15.0884C38.4952 20.0141 37.1824 24.8502 34.6956 29.1022C32.2089 33.3541 28.6375 36.8694 24.3467 39.2884L23.7967 39.6001C23.2469 39.9042 22.6283 40.0621 22 40.0584ZM22 7.60839L9.16667 14.8317V15.0884C9.16975 19.3621 10.3088 23.5581 12.4672 27.2467C14.6256 30.9353 17.7257 33.9838 21.45 36.0801L22 36.3917L22.55 36.0801C26.2743 33.9838 29.3744 30.9353 31.5328 27.2467C33.6912 23.5581 34.8302 19.3621 34.8333 15.0884V14.8317L22 7.60839Z" fill="#3581EA"/>
</svg>
