<svg width="44" height="48" viewBox="0 0 44 48" fill="none" xmlns="http://www.w3.org/2000/svg">
<path d="M28.644 5.09802C32.1073 5.98518 35.2275 7.88479 37.6058 10.5541C39.9842 13.2234 41.5126 16.5413 41.9959 20.0836C42.4791 23.6259 41.8953 27.2319 40.3189 30.4408C38.7425 33.6496 36.2451 36.3156 33.146 38.098V46.498" stroke="#3581EA" stroke-width="3" stroke-linecap="round" stroke-linejoin="round"/>
<path d="M16.644 22.5C16.644 24.4891 17.4342 26.3968 18.8407 27.8033C20.2472 29.2098 22.1549 30 24.144 30C26.1331 30 28.0408 29.2098 29.4473 27.8033C30.8538 26.3968 31.644 24.4891 31.644 22.5C31.644 20.5109 30.8538 18.6032 29.4473 17.1967C28.0408 15.7902 26.1331 15 24.144 15C22.1549 15 20.2472 15.7902 18.8407 17.1967C17.4342 18.6032 16.644 20.5109 16.644 22.5Z" stroke="#3581EA" stroke-width="3" stroke-linecap="round" stroke-linejoin="round"/>
<path d="M19.644 16.5V3C19.644 2.60218 19.802 2.22064 20.0834 1.93934C20.3647 1.65804 20.7462 1.5 21.144 1.5H27.144C27.5418 1.5 27.9234 1.65804 28.2047 1.93934C28.486 2.22064 28.644 2.60218 28.644 3V16.5" stroke="#3581EA" stroke-width="3" stroke-linecap="round" stroke-linejoin="round"/>
<path d="M6.14601 31.522L4.27401 31.054C3.80774 30.9373 3.37634 30.7103 3.01612 30.392C2.65591 30.0738 2.37744 29.6737 2.20415 29.2254C2.03085 28.777 1.96782 28.2936 2.02035 27.8159C2.07288 27.3381 2.23944 26.88 2.50601 26.48L6.14601 21.022V19.522C6.14601 12.438 11.882 6.5 19.644 4.922" stroke="#3581EA" stroke-width="3" stroke-linecap="round" stroke-linejoin="round"/>
<path d="M15.146 46.5V42.022L13.132 42.356C12.3045 42.4963 11.4566 42.4602 10.644 42.25" stroke="#3581EA" stroke-width="3" stroke-linecap="round" stroke-linejoin="round"/>
<path d="M24.144 22.5C24.144 26.4782 22.5637 30.2936 19.7506 33.1066C16.9376 35.9196 13.1223 37.5 9.14401 37.5H6.14401" stroke="#3581EA" stroke-width="3" stroke-linecap="round" stroke-linejoin="round"/>
</svg>
