<svg width="48" height="34" viewBox="0 0 48 34" fill="none" xmlns="http://www.w3.org/2000/svg">
<path d="M46.5 20V5C46.5 4.20435 46.1839 3.44129 45.6213 2.87868C45.0587 2.31607 44.2956 2 43.5 2H19.5C18.7044 2 17.9413 2.31607 17.3787 2.87868C16.8161 3.44129 16.5 4.20435 16.5 5V17" stroke="#3581EA" stroke-width="3" stroke-linecap="round" stroke-linejoin="round"/>
<path d="M16.5 17V5H10.5C8.11305 5 5.82387 5.94821 4.13604 7.63604C2.44821 9.32387 1.5 11.6131 1.5 14V26C1.5 26.7956 1.81607 27.5587 2.37868 28.1213C2.94129 28.6839 3.70435 29 4.5 29H6" stroke="#3581EA" stroke-width="3" stroke-linecap="round" stroke-linejoin="round"/>
<path d="M1.5 17H7.5C8.29565 17 9.05871 16.6839 9.62132 16.1213C10.1839 15.5587 10.5 14.7956 10.5 14V5" stroke="#3581EA" stroke-width="3" stroke-linecap="round" stroke-linejoin="round"/>
<path d="M10.5 27.5C10.5 28.6935 10.9741 29.8381 11.818 30.682C12.6619 31.5259 13.8065 32 15 32C16.1935 32 17.3381 31.5259 18.182 30.682C19.0259 29.8381 19.5 28.6935 19.5 27.5C19.5 26.3065 19.0259 25.1619 18.182 24.318C17.3381 23.4741 16.1935 23 15 23C13.8065 23 12.6619 23.4741 11.818 24.318C10.9741 25.1619 10.5 26.3065 10.5 27.5V27.5Z" stroke="#3581EA" stroke-width="3" stroke-linecap="round" stroke-linejoin="round"/>
<path d="M34.5 27.5C34.5 28.6935 34.9741 29.8381 35.818 30.682C36.6619 31.5259 37.8065 32 39 32C40.1935 32 41.3381 31.5259 42.182 30.682C43.0259 29.8381 43.5 28.6935 43.5 27.5C43.5 26.3065 43.0259 25.1619 42.182 24.318C41.3381 23.4741 40.1935 23 39 23C37.8065 23 36.6619 23.4741 35.818 24.318C34.9741 25.1619 34.5 26.3065 34.5 27.5Z" stroke="#3581EA" stroke-width="3" stroke-linecap="round" stroke-linejoin="round"/>
<path d="M24 29H30" stroke="#3581EA" stroke-width="3" stroke-linecap="round" stroke-linejoin="round"/>
</svg>
