<svg width="43" height="30" viewBox="0 0 43 30" fill="none" xmlns="http://www.w3.org/2000/svg">
<rect x="0.625" y="0.625" width="41.25" height="28.75" rx="4.375" fill="white" stroke="#D9D9D9" stroke-width="1.25"/>
<path fill-rule="evenodd" clip-rule="evenodd" d="M13.4378 19.8229H10.8631L8.93244 12.2406C8.84081 11.8918 8.64623 11.5835 8.36002 11.4381C7.64573 11.0729 6.85864 10.7823 6 10.6357V10.3438H10.1476C10.72 10.3438 11.1494 10.7823 11.2209 11.2915L12.2227 16.7609L14.7961 10.3438H17.2992L13.4378 19.8229ZM18.7303 19.8229H16.2987L18.301 10.3438H20.7325L18.7303 19.8229ZM23.8784 12.9699C23.9499 12.4593 24.3793 12.1674 24.8801 12.1674C25.6672 12.0941 26.5246 12.2407 27.2401 12.6047L27.6695 10.5638C26.9539 10.2718 26.1668 10.1252 25.4526 10.1252C23.0925 10.1252 21.3753 11.4383 21.3753 13.2605C21.3753 14.6468 22.5917 15.3748 23.4503 15.8133C24.3793 16.2505 24.737 16.5424 24.6655 16.9797C24.6655 17.6356 23.9499 17.9275 23.2357 17.9275C22.377 17.9275 21.5184 17.7088 20.7325 17.3436L20.3032 19.3858C21.1619 19.7498 22.0908 19.8964 22.9494 19.8964C25.5957 19.9684 27.2401 18.6566 27.2401 16.6878C27.2401 14.2083 23.8784 14.063 23.8784 12.9699ZM35.75 19.8229L33.8193 10.3438H31.7455C31.3162 10.3438 30.8869 10.6357 30.7438 11.0729L27.1686 19.8229H29.6717L30.1713 18.4379H33.2469L33.5331 19.8229H35.75ZM32.1033 12.8965L32.8176 16.4691H30.8153L32.1033 12.8965Z" fill="#172B85"/>
</svg>
