<svg width="43" height="30" viewBox="0 0 43 30" fill="none" xmlns="http://www.w3.org/2000/svg">
<rect x="1.125" y="0.625" width="41.25" height="28.75" rx="4.375" fill="white" stroke="#D9D9D9" stroke-width="1.25"/>
<path fill-rule="evenodd" clip-rule="evenodd" d="M18.7678 23.0602L19.0437 21.2488L18.4291 21.234H15.4941L17.5338 7.867C17.5402 7.82652 17.5607 7.78895 17.5907 7.76222C17.6208 7.73549 17.6593 7.72083 17.6995 7.72083H22.6482C24.2912 7.72083 25.425 8.07412 26.0168 8.77155C26.2944 9.09872 26.4711 9.44072 26.5567 9.81692C26.6464 10.2118 26.6479 10.6834 26.5604 11.2588L26.554 11.3007V11.6694L26.8316 11.8319C27.0652 11.9601 27.251 12.1067 27.3934 12.2746C27.6308 12.5544 27.7843 12.91 27.8492 13.3314C27.9163 13.7649 27.8941 14.2808 27.7843 14.8649C27.6577 15.5367 27.453 16.1219 27.1765 16.6006C26.9223 17.0417 26.5984 17.4077 26.2137 17.6911C25.8465 17.9606 25.4102 18.1651 24.9169 18.296C24.4388 18.4246 23.8938 18.4895 23.2961 18.4895H22.9109C22.6356 18.4895 22.3681 18.592 22.1582 18.7758C21.9476 18.9633 21.8084 19.2197 21.7656 19.4999L21.7365 19.6631L21.249 22.8559L21.227 22.973C21.2211 23.0101 21.211 23.0286 21.1962 23.0411C21.1831 23.0526 21.1642 23.0602 21.1457 23.0602H18.7678Z" fill="#28356A"/>
<path fill-rule="evenodd" clip-rule="evenodd" d="M27.0946 11.3433C27.08 11.4409 27.063 11.5406 27.0441 11.6431C26.3915 15.1064 24.1586 16.3028 21.3071 16.3028H19.8551C19.5064 16.3028 19.2124 16.5645 19.1582 16.9201L18.2043 23.1741C18.169 23.4077 18.343 23.618 18.5709 23.618H21.1461C21.451 23.618 21.7101 23.3891 21.7581 23.0782L21.7834 22.943L22.2682 19.7628L22.2994 19.5883C22.3469 19.2764 22.6065 19.0473 22.9114 19.0473H23.2965C25.7915 19.0473 27.7447 18.0004 28.3156 14.9706C28.5539 13.705 28.4305 12.6481 27.7995 11.9049C27.6086 11.6808 27.3717 11.4948 27.0946 11.3433Z" fill="#298FC2"/>
<path fill-rule="evenodd" clip-rule="evenodd" d="M26.4115 11.0619C26.3118 11.0318 26.2089 11.0046 26.1034 10.9801C25.9973 10.9561 25.8887 10.9348 25.7768 10.9162C25.3853 10.8508 24.9563 10.8198 24.4969 10.8198H20.6181C20.5225 10.8198 20.4317 10.8421 20.3506 10.8824C20.1716 10.9713 20.0388 11.1464 20.0066 11.3607L19.1814 16.7626L19.1577 16.9201C19.212 16.5645 19.5059 16.3028 19.8546 16.3028H21.3066C24.1582 16.3028 26.391 15.1058 27.0436 11.6431C27.0631 11.5406 27.0795 11.4409 27.0941 11.3433C26.929 11.2527 26.7502 11.1753 26.5577 11.1093C26.5101 11.0929 26.461 11.0772 26.4115 11.0619Z" fill="#22284F"/>
<path fill-rule="evenodd" clip-rule="evenodd" d="M20.0068 11.3608C20.039 11.1465 20.1719 10.9714 20.3508 10.8831C20.4326 10.8427 20.5227 10.8204 20.6183 10.8204H24.4971C24.9566 10.8204 25.3856 10.8515 25.777 10.9169C25.8889 10.9354 25.9975 10.9568 26.1036 10.9808C26.2091 11.0052 26.312 11.0325 26.4117 11.0625C26.4613 11.0777 26.5103 11.0936 26.5583 11.1094C26.7509 11.1753 26.9299 11.2534 27.0949 11.3434C27.2891 10.0635 27.0933 9.19213 26.4239 8.40306C25.6857 7.53425 24.3536 7.16248 22.649 7.16248H17.7001C17.3519 7.16248 17.0549 7.42412 17.0011 7.78032L14.9398 21.2848C14.8992 21.552 15.0986 21.793 15.3592 21.793H18.4145L20.0068 11.3608Z" fill="#28356A"/>
</svg>
