<svg width="43" height="30" viewBox="0 0 43 30" fill="none" xmlns="http://www.w3.org/2000/svg">
<rect x="0.625" y="0.625" width="41.25" height="28.75" rx="4.375" fill="white" stroke="#D9D9D9" stroke-width="1.25"/>
<path fill-rule="evenodd" clip-rule="evenodd" d="M11.8115 10.4289C11.4548 10.8688 10.884 11.2158 10.3133 11.1662C10.2419 10.5714 10.5213 9.93951 10.8483 9.5492C11.2051 9.09694 11.8293 8.77478 12.3347 8.75C12.3942 9.36954 12.1623 9.97669 11.8115 10.4289ZM12.3287 11.284C11.8259 11.2539 11.3671 11.4416 10.9965 11.5933C10.758 11.6908 10.556 11.7735 10.4024 11.7735C10.23 11.7735 10.0197 11.6864 9.78356 11.5887C9.47418 11.4606 9.12047 11.3142 8.74955 11.3212C7.89935 11.3336 7.1086 11.8354 6.67459 12.6346C5.78277 14.233 6.44271 16.5997 7.3048 17.9007C7.72693 18.545 8.2323 19.2513 8.89819 19.2265C9.19114 19.215 9.40187 19.1218 9.61996 19.0254C9.87104 18.9144 10.1319 18.799 10.5391 18.799C10.9323 18.799 11.1817 18.9114 11.4211 19.0192C11.6488 19.1217 11.8674 19.2202 12.192 19.2141C12.8816 19.2017 13.3157 18.5698 13.7378 17.9255C14.1933 17.2339 14.3935 16.559 14.4239 16.4566L14.4275 16.4448C14.4267 16.444 14.4211 16.4413 14.4112 16.4366C14.2589 16.364 13.095 15.8087 13.0838 14.3198C13.0726 13.07 14.007 12.4368 14.1541 12.3372C14.163 12.3311 14.1691 12.327 14.1718 12.3249C13.5773 11.408 12.6498 11.3088 12.3287 11.284ZM17.103 19.1459V9.4873H20.5811C22.3766 9.4873 23.6311 10.7759 23.6311 12.6593C23.6311 14.5427 22.3528 15.8438 20.5335 15.8438H18.5418V19.1459H17.103ZM18.5416 10.751H20.2004C21.449 10.751 22.1624 11.4449 22.1624 12.6654C22.1624 13.8859 21.449 14.586 20.1945 14.586H18.5416V10.751ZM28.3816 17.9873C28.0011 18.7431 27.1628 19.2201 26.2591 19.2201C24.9213 19.2201 23.9879 18.39 23.9879 17.1385C23.9879 15.8994 24.8916 15.187 26.5623 15.0816L28.3578 14.9701V14.4373C28.3578 13.6505 27.8643 13.223 26.9844 13.223C26.2591 13.223 25.7299 13.6133 25.6229 14.2081H24.3268C24.3684 12.9566 25.498 12.0459 27.026 12.0459C28.6729 12.0459 29.7431 12.9442 29.7431 14.3382V19.1458H28.4113V17.9873H28.3816ZM26.6454 18.074C25.8784 18.074 25.3909 17.6898 25.3909 17.1013C25.3909 16.4941 25.8606 16.141 26.7584 16.0852L28.3577 15.9799V16.5251C28.3577 17.4296 27.6205 18.074 26.6454 18.074ZM34.1605 19.5239C33.5838 21.2152 32.9238 21.7728 31.5207 21.7728C31.4137 21.7728 31.057 21.7604 30.9737 21.7356V20.5771C31.0629 20.5895 31.2829 20.6019 31.3959 20.6019C32.032 20.6019 32.3888 20.3231 32.6087 19.5982L32.7395 19.1707L30.3019 12.139H31.8061L33.5006 17.8449H33.5303L35.2247 12.139H36.6873L34.1605 19.5239Z" fill="black"/>
</svg>
