<svg width="43" height="30" viewBox="0 0 43 30" fill="none" xmlns="http://www.w3.org/2000/svg">
<rect x="0.625" y="0.625" width="41.25" height="28.75" rx="4.375" fill="white" stroke="#D9D9D9" stroke-width="1.25"/>
<path fill-rule="evenodd" clip-rule="evenodd" d="M26.9716 23.0376C31.6527 23.0376 35.4474 19.288 35.4474 14.6626C35.4474 10.0372 31.6527 6.2876 26.9716 6.2876C24.8736 6.2876 22.9537 7.04073 21.4737 8.2883C19.9936 7.04077 18.0738 6.28766 15.9759 6.28766C11.2948 6.28766 7.5 10.0373 7.5 14.6627C7.5 19.288 11.2948 23.0377 15.9759 23.0377C18.0738 23.0377 19.9937 22.2845 21.4738 21.037C22.9538 22.2845 24.8737 23.0376 26.9716 23.0376Z" fill="#ED0006"/>
<path fill-rule="evenodd" clip-rule="evenodd" d="M21.4736 21.0369C23.2961 19.5008 24.4517 17.215 24.4517 14.6626C24.4517 12.1101 23.2961 9.82439 21.4736 8.28826C22.9537 7.04071 24.8736 6.2876 26.9715 6.2876C31.6526 6.2876 35.4473 10.0372 35.4473 14.6626C35.4473 19.288 31.6526 23.0376 26.9715 23.0376C24.8736 23.0376 22.9537 22.2845 21.4736 21.0369Z" fill="#F9A000"/>
<path fill-rule="evenodd" clip-rule="evenodd" d="M21.4736 21.0369C23.296 19.5008 24.4515 17.215 24.4515 14.6626C24.4515 12.1102 23.296 9.82446 21.4736 8.28833C19.6512 9.82446 18.4956 12.1102 18.4956 14.6626C18.4956 17.215 19.6512 19.5008 21.4736 21.0369Z" fill="#FF5E00"/>
</svg>
