<svg width="24" height="24" viewBox="0 0 24 24" fill="none" xmlns="http://www.w3.org/2000/svg">
<rect width="24" height="24" fill="white"/>
<path d="M6 19.1249H15.921C16.2753 19.125 16.6182 18.9996 16.889 18.7709C17.1597 18.5423 17.3407 18.2253 17.4 17.8759L20.037 2.37593C20.0965 2.02678 20.2776 1.70994 20.5483 1.48153C20.819 1.25311 21.1618 1.12785 21.516 1.12793H22.5" stroke="#858585" stroke-width="2" stroke-linecap="round" stroke-linejoin="round"/>
<path d="M7.875 21.375C7.94917 21.375 8.02167 21.397 8.08334 21.4382C8.14501 21.4794 8.19307 21.538 8.22145 21.6065C8.24984 21.675 8.25726 21.7504 8.24279 21.8232C8.22832 21.8959 8.19261 21.9627 8.14017 22.0152C8.08772 22.0676 8.0209 22.1033 7.94816 22.1178C7.87542 22.1323 7.80002 22.1248 7.73149 22.0965C7.66297 22.0681 7.6044 22.02 7.5632 21.9583C7.52199 21.8967 7.5 21.8242 7.5 21.75C7.5 21.6505 7.53951 21.5552 7.60984 21.4848C7.68016 21.4145 7.77554 21.375 7.875 21.375Z" stroke="#858585" stroke-width="2" stroke-linecap="round" stroke-linejoin="round" stroke-dasharray="2 2"/>
<path d="M15.875 21.375C15.9492 21.375 16.0217 21.397 16.0834 21.4382C16.145 21.4794 16.1931 21.538 16.2215 21.6065C16.2499 21.675 16.2573 21.7504 16.2428 21.8232C16.2284 21.8959 16.1926 21.9627 16.1402 22.0152C16.0878 22.0676 16.0209 22.1033 15.9482 22.1178C15.8754 22.1323 15.8 22.1248 15.7315 22.0965C15.663 22.0681 15.6044 22.02 15.5632 21.9583C15.522 21.8967 15.5 21.8242 15.5 21.75C15.5 21.6505 15.5395 21.5552 15.6099 21.4848C15.6802 21.4145 15.7756 21.375 15.875 21.375Z" stroke="#858585" stroke-width="2" stroke-linecap="round" stroke-linejoin="round" stroke-dasharray="2 2"/>
<path d="M17.953 14.6248H5.88202C5.2131 14.6248 4.56339 14.4011 4.03614 13.9895C3.50889 13.5778 3.13435 13.0018 2.97202 12.3528L1.52202 6.55285C1.49435 6.44224 1.49227 6.32677 1.51592 6.21524C1.53958 6.1037 1.58836 5.99902 1.65855 5.90917C1.72873 5.81931 1.81849 5.74664 1.92098 5.69668C2.02347 5.64672 2.136 5.62079 2.25002 5.62085H19.484" stroke="#858585" stroke-width="2" stroke-linecap="round" stroke-linejoin="round"/>
</svg>
