<svg width="24" height="24" viewBox="0 0 24 24" fill="none" xmlns="http://www.w3.org/2000/svg">
<path d="M8.23889 5.09595C8.89818 5.78001 9.68865 6.32408 10.563 6.69563C11.4374 7.06718 12.3778 7.25857 13.3278 7.25837C14.29 7.25864 15.2422 7.06269 16.1261 6.68248" stroke="#858585" stroke-width="1.5" stroke-linecap="round" stroke-linejoin="round"/>
<path d="M7.64999 7.25833C7.64999 8.38771 8.09864 9.47084 8.89723 10.2694C9.69582 11.068 10.7789 11.5167 11.9083 11.5167C13.0377 11.5167 14.1208 11.068 14.9194 10.2694C15.718 9.47084 16.1667 8.38771 16.1667 7.25833C16.1667 6.12895 15.718 5.04583 14.9194 4.24724C14.1208 3.44864 13.0377 3 11.9083 3C10.7789 3 9.69582 3.44864 8.89723 4.24724C8.09864 5.04583 7.64999 6.12895 7.64999 7.25833Z" stroke="#858585" stroke-width="1.5" stroke-linecap="round" stroke-linejoin="round"/>
<path d="M4 21.2499C4 19.1525 4.8332 17.141 6.3163 15.6579C7.7994 14.1747 9.81091 13.3416 11.9083 13.3416C14.0058 13.3416 16.0173 14.1747 17.5004 15.6579C18.9835 17.141 19.8167 19.1525 19.8167 21.2499" stroke="#858585" stroke-width="1.5" stroke-linecap="round" stroke-linejoin="round"/>
</svg>
