<svg width="20" height="17" viewBox="0 0 20 17" fill="none" xmlns="http://www.w3.org/2000/svg">
<path d="M19.375 9.82096V2.81481C19.375 2.44318 19.2433 2.08677 19.0089 1.82399C18.7745 1.5612 18.4565 1.41357 18.125 1.41357H8.125C7.79348 1.41357 7.47554 1.5612 7.24112 1.82399C7.0067 2.08677 6.875 2.44318 6.875 2.81481V8.41973" stroke="#1358B9" stroke-width="1.5" stroke-linecap="round" stroke-linejoin="round"/>
<path d="M6.875 8.41962V2.8147H4.375C3.38044 2.8147 2.42661 3.25759 1.72335 4.04593C1.02009 4.83428 0.625 5.9035 0.625 7.01839V12.6233C0.625 12.9949 0.756696 13.3514 0.991117 13.6141C1.22554 13.8769 1.54348 14.0245 1.875 14.0245H2.5" stroke="#1358B9" stroke-width="1.5" stroke-linecap="round" stroke-linejoin="round"/>
<path d="M0.625 8.41962H3.125C3.45652 8.41962 3.77446 8.27199 4.00888 8.00921C4.2433 7.74643 4.375 7.39002 4.375 7.01839V2.8147" stroke="#1358B9" stroke-width="1.5" stroke-linecap="round" stroke-linejoin="round"/>
<path d="M4.375 13.324C4.375 13.8815 4.57254 14.4161 4.92417 14.8102C5.27581 15.2044 5.75272 15.4259 6.25 15.4259C6.74728 15.4259 7.22419 15.2044 7.57582 14.8102C7.92746 14.4161 8.125 13.8815 8.125 13.324C8.125 12.7666 7.92746 12.232 7.57582 11.8378C7.22419 11.4436 6.74728 11.2222 6.25 11.2222C5.75272 11.2222 5.27581 11.4436 4.92417 11.8378C4.57254 12.232 4.375 12.7666 4.375 13.324V13.324Z" stroke="#1358B9" stroke-width="1.5" stroke-linecap="round" stroke-linejoin="round"/>
<path d="M14.375 13.324C14.375 13.8815 14.5725 14.4161 14.9242 14.8102C15.2758 15.2044 15.7527 15.4259 16.25 15.4259C16.7473 15.4259 17.2242 15.2044 17.5758 14.8102C17.9275 14.4161 18.125 13.8815 18.125 13.324C18.125 12.7666 17.9275 12.232 17.5758 11.8378C17.2242 11.4436 16.7473 11.2222 16.25 11.2222C15.7527 11.2222 15.2758 11.4436 14.9242 11.8378C14.5725 12.232 14.375 12.7666 14.375 13.324Z" stroke="#1358B9" stroke-width="1.5" stroke-linecap="round" stroke-linejoin="round"/>
<path d="M10 14.0247H12.5" stroke="#1358B9" stroke-width="1.5" stroke-linecap="round" stroke-linejoin="round"/>
</svg>
